<?xml version="1.0" encoding="UTF-8" standalone="no"?>
<!DOCTYPE svg PUBLIC "-//W3C//DTD SVG 1.1//EN" "http://www.w3.org/Graphics/SVG/1.1/DTD/svg11.dtd">
<svg width="100%" height="100%" viewBox="0 0 1000 1000" version="1.1" xmlns="http://www.w3.org/2000/svg" xmlns:xlink="http://www.w3.org/1999/xlink" xml:space="preserve" style="fill-rule:evenodd;clip-rule:evenodd;stroke-linecap:round;stroke-linejoin:round;stroke-miterlimit:1.5;">
    <g transform="matrix(1.95,0,0,1.10544,12.5,-12.9252)">
        <ellipse cx="250" cy="464" rx="250" ry="441" style="fill:rgb(198,26,0);stroke:black;stroke-width:15.77px;"/>
    </g>
    <g transform="matrix(2.35085,-2.12127,-0.202433,-0.224342,-269.805,1651.28)">
        <path d="M558.5,758C492.346,718.183 424.26,724.965 352.707,815.345L346.067,728.921C405.974,620.719 475.606,614.807 549.567,667.027L558.5,758Z" style="fill:white;"/>
    </g>
    <g transform="matrix(-2.35085,-2.12127,0.202433,-0.224342,1267.8,1651.28)">
        <path d="M558.5,758C492.346,718.183 424.26,724.965 352.707,815.345L346.067,728.921C405.974,620.719 475.606,614.807 549.567,667.027L558.5,758Z" style="fill:white;"/>
    </g>
    <g>
        <g transform="matrix(10.3333,0,0,1.11818,-3622.33,-27.7727)">
            <ellipse cx="388" cy="290" rx="3" ry="55" style="fill:white;"/>
        </g>
        <g transform="matrix(10.3333,0,0,1.11818,-3560.33,-124.773)">
            <ellipse cx="388" cy="290" rx="3" ry="55" style="fill:white;"/>
        </g>
        <g transform="matrix(10.3333,0,0,1.11818,-3460.33,-124.773)">
            <ellipse cx="388" cy="290" rx="3" ry="55" style="fill:white;"/>
        </g>
        <g transform="matrix(10.3333,0,0,1.11818,-3398.33,-27.7727)">
            <ellipse cx="388" cy="290" rx="3" ry="55" style="fill:white;"/>
        </g>
        <g id="path1575" transform="matrix(0.726148,0,0,0.941431,342.212,93.5335)">
            <path d="M219.313,215.594C187.173,215.662 154.53,231.972 133.719,256.25C111.241,284.547 87.829,311.477 80.625,347.188C71.874,372.894 91.708,402.478 119.188,402.656C152.246,403.575 180.658,380.873 213.531,379.188C241.421,374.936 266.394,389.443 291.469,398.938C312.818,408.069 342.319,404.569 353.219,381.594C361.792,358.175 349.173,333.204 338.719,312.406C317.397,278.649 299.554,249.17 264.594,228.094C250.581,219.408 235.008,215.56 219.313,215.594Z" style="fill:white;fill-rule:nonzero;"/>
        </g>
        <g transform="matrix(-1.72727,0,0,1.08824,1269.95,-22.5)">
            <path d="M387,187L387,221L376,221L387,187Z" style="fill:white;"/>
        </g>
        <g transform="matrix(1.72727,0,0,1.08824,-209.955,-113.5)">
            <path d="M387,187L387,221L376,221L387,187Z" style="fill:white;"/>
        </g>
        <g transform="matrix(-1.72727,0,0,1.08824,1207.95,-113.5)">
            <path d="M387,187L387,221L376,221L387,187Z" style="fill:white;"/>
        </g>
        <g transform="matrix(1.72727,0,0,1.08824,-271.955,-20.5)">
            <path d="M387,187L387,221L376,221L387,187Z" style="fill:white;"/>
        </g>
    </g>
    <g transform="matrix(-1,0,0,1,997,0)">
        <g transform="matrix(0.569739,0,0.506358,0.613132,-431.863,342.209)">
            <path d="M500,803.754C500,800.036 496.751,797.017 492.75,797.017L478.25,797.017C474.249,797.017 471,800.036 471,803.754L471,875.263C471,878.981 474.249,882 478.25,882L492.75,882C496.751,882 500,878.981 500,875.263L500,803.754Z"/>
        </g>
        <g transform="matrix(-0.660074,-0.7512,2.18283,-1.91804,-1345.97,2718.2)">
            <path d="M312,838C281.645,838 257,850.322 257,865.5C257,880.678 281.645,893 312,893C293.154,889.524 277.854,878.399 277.854,865.5C277.854,852.601 293.154,841.476 312,838Z"/>
        </g>
        <g transform="matrix(1,0,0,1,-7,-6)">
            <ellipse cx="235.5" cy="849.5" rx="21.5" ry="22.5"/>
        </g>
        <g transform="matrix(1,0,0,1,80.9834,49.6511)">
            <path d="M326.5,645C310.77,645 298,658.219 298,674.5C298,690.781 310.77,704 326.5,704C321.781,697.117 317.95,686.268 317.95,674.5C317.95,662.732 321.781,651.883 326.5,645Z"/>
        </g>
        <g transform="matrix(0.961051,0,0,1.01149,19.4774,-5.43678)">
            <path d="M370,734L247,821" style="fill:none;stroke:black;stroke-width:5.07px;stroke-linecap:butt;"/>
        </g>
        <g transform="matrix(-0.732448,0.557176,-0.278022,-0.36548,831.247,913.168)">
            <path d="M446,891L280,891L298.774,839L446,839L446,891Z"/>
        </g>
        <g transform="matrix(-1.08182,0,0,1.21459,894.909,-179.724)">
            <path d="M472.5,753.651C457.322,753.651 445,772.325 445,795.326C445,818.326 457.322,837 472.5,837C464.911,830.054 458.75,813.772 458.75,795.326C458.75,776.879 464.911,760.597 472.5,753.651Z"/>
        </g>
    </g>
    <g>
        <g transform="matrix(0.569739,0,0.506358,0.613132,-431.863,342.209)">
            <path d="M500,803.754C500,800.036 496.751,797.017 492.75,797.017L478.25,797.017C474.249,797.017 471,800.036 471,803.754L471,875.263C471,878.981 474.249,882 478.25,882L492.75,882C496.751,882 500,878.981 500,875.263L500,803.754Z"/>
        </g>
        <g transform="matrix(-0.660074,-0.7512,2.18283,-1.91804,-1345.97,2718.2)">
            <path d="M312,838C281.645,838 257,850.322 257,865.5C257,880.678 281.645,893 312,893C293.154,889.524 277.854,878.399 277.854,865.5C277.854,852.601 293.154,841.476 312,838Z"/>
        </g>
        <g transform="matrix(1,0,0,1,-7,-6)">
            <ellipse cx="235.5" cy="849.5" rx="21.5" ry="22.5"/>
        </g>
        <g transform="matrix(1,0,0,1,80.9834,49.6511)">
            <path d="M326.5,645C310.77,645 298,658.219 298,674.5C298,690.781 310.77,704 326.5,704C321.781,697.117 317.95,686.268 317.95,674.5C317.95,662.732 321.781,651.883 326.5,645Z"/>
        </g>
        <g transform="matrix(0.961051,0,0,1.01149,19.4774,-5.43678)">
            <path d="M370,734L247,821" style="fill:none;stroke:black;stroke-width:5.07px;stroke-linecap:butt;"/>
        </g>
        <g transform="matrix(-0.732448,0.557176,-0.278022,-0.36548,831.247,913.168)">
            <path d="M446,891L280,891L298.774,839L446,839L446,891Z"/>
        </g>
        <g transform="matrix(-1.08182,0,0,1.21459,894.909,-179.724)">
            <path d="M472.5,753.651C457.322,753.651 445,772.325 445,795.326C445,818.326 457.322,837 472.5,837C464.911,830.054 458.75,813.772 458.75,795.326C458.75,776.879 464.911,760.597 472.5,753.651Z"/>
        </g>
    </g>
</svg>
